<?xml version="1.0" encoding="UTF-8"?>
<!DOCTYPE svg PUBLIC "-//W3C//DTD SVG 1.1//EN" "http://www.w3.org/Graphics/SVG/1.1/DTD/svg11.dtd">
<svg xmlns="http://www.w3.org/2000/svg" version="1.1" width="1024px" height="1024px" style="shape-rendering:geometricPrecision; text-rendering:geometricPrecision; image-rendering:optimizeQuality; fill-rule:evenodd; clip-rule:evenodd" xmlns:xlink="http://www.w3.org/1999/xlink">
<g><path style="opacity:1" fill="#f0e4d8" d="M -0.5,-0.5 C 340.833,-0.5 682.167,-0.5 1023.5,-0.5C 1023.5,340.833 1023.5,682.167 1023.5,1023.5C 682.167,1023.5 340.833,1023.5 -0.5,1023.5C -0.5,682.167 -0.5,340.833 -0.5,-0.5 Z"/></g>
<g><path style="opacity:1" fill="#a08c4d" d="M 451.5,451.5 C 455.971,450.911 459.971,451.577 463.5,453.5C 459.167,453.5 454.833,453.5 450.5,453.5C 448.901,453.768 447.568,453.434 446.5,452.5C 448.042,451.699 449.708,451.366 451.5,451.5 Z"/></g>
<g><path style="opacity:1" fill="#ab9268" d="M 203.5,463.5 C 202.5,463.5 201.5,463.5 200.5,463.5C 200.664,460.813 200.497,458.146 200,455.5C 197.853,454.887 195.686,454.221 193.5,453.5C 200.833,452.167 208.167,452.167 215.5,453.5C 212.97,454.132 210.637,455.132 208.5,456.5C 207.057,459.077 205.39,461.41 203.5,463.5 Z"/></g>
<g><path style="opacity:1" fill="#a88f6a" d="M 287.5,457.5 C 287.5,456.5 287.5,455.5 287.5,454.5C 285.857,454.48 284.524,455.147 283.5,456.5C 280.656,454.897 277.656,454.397 274.5,455C 275.171,455.986 275.171,457.153 274.5,458.5C 273.045,455.727 270.712,454.06 267.5,453.5C 276.816,452.335 286.149,452.168 295.5,453C 292.408,453.854 289.741,455.354 287.5,457.5 Z"/></g>
<g><path style="opacity:1" fill="#ae9465" d="M 846.5,466.5 C 843.915,458.925 838.582,455.259 830.5,455.5C 822.133,454.484 814.133,454.484 806.5,455.5C 799.978,455.177 793.645,455.51 787.5,456.5C 778.984,459.839 774.65,466.172 774.5,475.5C 773.503,467.862 773.169,460.196 773.5,452.5C 798.833,452.5 824.167,452.5 849.5,452.5C 849.666,460.174 849.5,467.841 849,475.5C 848.594,472.258 847.761,469.258 846.5,466.5 Z"/></g>
<g><path style="opacity:1" fill="#f6e2e2" d="M 450.5,453.5 C 454.833,453.5 459.167,453.5 463.5,453.5C 463.5,453.833 463.5,454.167 463.5,454.5C 458.604,456.446 453.271,457.113 447.5,456.5C 448.306,455.272 449.306,454.272 450.5,453.5 Z"/></g>
<g><path style="opacity:1" fill="#b1946a" d="M 451.5,451.5 C 460.014,449.71 468.347,450.71 476.5,454.5C 477.554,454.32 478.554,453.987 479.5,453.5C 481.631,460.729 481.964,468.062 480.5,475.5C 479.376,471.255 477.71,467.255 475.5,463.5C 472.606,458.928 468.606,455.928 463.5,454.5C 463.5,454.167 463.5,453.833 463.5,453.5C 459.971,451.577 455.971,450.911 451.5,451.5 Z"/></g>
<g><path style="opacity:1" fill="#b39564" d="M 718.5,450.5 C 732.814,449.274 746.481,451.608 759.5,457.5C 760.664,463.807 760.831,470.141 760,476.5C 752.851,458.092 739.351,450.592 719.5,454C 707.137,458.702 699.304,467.536 696,480.5C 691.675,499.224 694.675,516.557 705,532.5C 718.916,545.37 734.082,546.87 750.5,537C 755.82,532.19 759.487,526.357 761.5,519.5C 764.036,528.775 761.369,535.942 753.5,541C 735.541,548.796 717.875,548.129 700.5,539C 692.092,532.689 686.259,524.523 683,514.5C 678.008,493.284 683.175,475.117 698.5,460C 704.874,455.977 711.54,452.811 718.5,450.5 Z"/></g>
<g><path style="opacity:1" fill="#aa8f5e" d="M 883.5,461.5 C 882.668,485.997 882.168,510.663 882,535.5C 881.697,531.471 881.197,527.471 880.5,523.5C 881.809,513.814 881.809,504.148 880.5,494.5C 881.313,482.879 881.813,471.213 882,459.5C 883.591,454.054 881.758,452.721 876.5,455.5C 871.972,453.53 870.805,454.53 873,458.5C 873.423,457.044 874.256,456.544 875.5,457C 874.167,458 874.167,459 875.5,460C 874.833,460.333 874.167,460.667 873.5,461C 873.929,464.047 873.929,467.214 873.5,470.5C 874.873,470.343 876.207,470.51 877.5,471C 876.167,471.667 876.167,472.333 877.5,473C 876.256,473.456 875.423,472.956 875,471.5C 874.308,472.025 873.808,472.692 873.5,473.5C 873.689,476.985 873.689,480.652 873.5,484.5C 875.927,484.523 878.26,485.023 880.5,486C 879.88,488.473 879.214,490.973 878.5,493.5C 877.186,492.687 876.019,491.687 875,490.5C 874.667,491.167 874.333,491.833 874,492.5C 873.888,495.247 874.054,497.747 874.5,500C 873.901,501.622 873.234,503.122 872.5,504.5C 872.667,489.496 872.5,474.496 872,459.5C 870.518,455.669 867.685,453.669 863.5,453.5C 872.816,452.335 882.149,452.168 891.5,453C 886.603,453.731 883.936,456.564 883.5,461.5 Z"/></g>
<g><path style="opacity:1" fill="#f4e7d2" d="M 255.5,453.5 C 253.859,455.258 251.859,456.758 249.5,458C 248.707,459.085 248.04,460.252 247.5,461.5C 248.822,483.465 248.822,505.465 247.5,527.5C 246.833,506.167 246.167,484.833 245.5,463.5C 244.105,488.184 244.271,512.851 246,537.5C 249.695,538.418 252.528,540.418 254.5,543.5C 249.712,544.828 244.546,545.495 239,545.5C 233.416,545.526 228.582,545.193 224.5,544.5C 233.857,544.832 243.19,544.498 252.5,543.5C 252.376,542.893 252.043,542.56 251.5,542.5C 247.363,542.518 244.863,540.518 244,536.5C 243.5,511.836 243.333,487.169 243.5,462.5C 243.5,462.167 243.5,461.833 243.5,461.5C 244.199,459.444 245.199,457.444 246.5,455.5C 248.661,454.965 250.661,454.132 252.5,453C 243.167,452.333 233.833,452.333 224.5,453C 228.527,453.427 231.027,455.594 232,459.5C 232.5,485.165 232.667,510.831 232.5,536.5C 231.566,537.568 231.232,538.901 231.5,540.5C 229.412,541.939 227.079,542.606 224.5,542.5C 225.246,541.465 226.746,540.465 229,539.5C 229.333,538.5 229.667,537.5 230,536.5C 230.667,510.833 230.667,485.167 230,459.5C 228.448,458.034 226.614,457.034 224.5,456.5C 223.526,454.257 223.192,451.924 223.5,449.5C 222.127,449.657 220.793,449.49 219.5,449C 220.025,448.308 220.692,447.808 221.5,447.5C 227.12,451.159 232.954,451.492 239,448.5C 243.865,450.389 249.032,451.556 254.5,452C 255.056,452.383 255.389,452.883 255.5,453.5 Z"/></g>
<g><path style="opacity:1" fill="#f3e7d1" d="M 463.5,454.5 C 468.606,455.928 472.606,458.928 475.5,463.5C 473.068,462.25 470.734,460.75 468.5,459C 460.812,458.169 453.145,458.335 445.5,459.5C 443.143,462.023 442.143,465.023 442.5,468.5C 442.754,472.256 443.421,475.923 444.5,479.5C 446.857,479.337 449.19,479.503 451.5,480C 450.833,481 450.167,482 449.5,483C 451.596,484.766 453.929,486.099 456.5,487C 457.305,488.113 457.972,489.279 458.5,490.5C 450.494,487.574 444.66,482.241 441,474.5C 440.304,470.095 440.637,465.761 442,461.5C 443.055,458.944 444.888,457.277 447.5,456.5C 453.271,457.113 458.604,456.446 463.5,454.5 Z"/></g>
<g><path style="opacity:1" fill="#f0e3de" d="M 251.5,463.5 C 250.844,485.193 251.511,506.526 253.5,527.5C 254.332,506.337 254.832,485.004 255,463.5C 255.5,484.831 255.667,506.164 255.5,527.5C 259.226,527.177 262.893,527.511 266.5,528.5C 265.758,529.287 264.925,529.953 264,530.5C 263.612,529.572 262.945,528.905 262,528.5C 259.002,531.776 255.502,532.443 251.5,530.5C 252.303,535.476 255.136,538.809 260,540.5C 260.483,541.448 260.649,542.448 260.5,543.5C 258.5,543.5 256.5,543.5 254.5,543.5C 252.528,540.418 249.695,538.418 246,537.5C 244.271,512.851 244.105,488.184 245.5,463.5C 246.167,484.833 246.833,506.167 247.5,527.5C 248.822,505.465 248.822,483.465 247.5,461.5C 248.04,460.252 248.707,459.085 249.5,458C 251.859,456.758 253.859,455.258 255.5,453.5C 257.707,452.261 260.041,451.761 262.5,452C 261.663,453.011 261.33,454.178 261.5,455.5C 262.552,455.351 263.552,455.517 264.5,456C 263.655,457.558 264.321,458.558 266.5,459C 265.167,460.84 265.334,461.34 267,460.5C 267.374,461.416 267.874,462.25 268.5,463C 266.421,463.808 264.421,463.641 262.5,462.5C 262.833,461.833 263.167,461.167 263.5,460.5C 261.102,458.778 259.435,457.111 258.5,455.5C 257.558,455.608 256.725,455.941 256,456.5C 255.667,457.833 255.333,459.167 255,460.5C 254.333,461.833 253.667,461.833 253,460.5C 251.961,461.244 251.461,462.244 251.5,463.5 Z"/></g>
<g><path style="opacity:1" fill="#efe3cd" d="M 787.5,456.5 C 793.645,455.51 799.978,455.177 806.5,455.5C 806.5,458.167 806.5,460.833 806.5,463.5C 806.5,484.5 806.5,505.5 806.5,526.5C 806.695,530.915 806.195,535.249 805,539.5C 803.961,540.71 802.794,541.71 801.5,542.5C 803.084,537.598 804.084,532.598 804.5,527.5C 804.833,505.823 804.5,484.156 803.5,462.5C 802.914,462.709 802.414,463.043 802,463.5C 801.5,479.497 801.333,495.497 801.5,511.5C 800.673,516.651 800.173,521.984 800,527.5C 799.5,506.169 799.333,484.836 799.5,463.5C 778.167,463.167 778.167,462.833 799.5,462.5C 799.5,461.5 799.5,460.5 799.5,459.5C 801.167,459.5 802.833,459.5 804.5,459.5C 804.5,458.5 804.5,457.5 804.5,456.5C 798.833,456.5 793.167,456.5 787.5,456.5 Z"/></g>
<g><path style="opacity:1" fill="#ba9a6b" d="M 830.5,455.5 C 826.167,455.5 821.833,455.5 817.5,455.5C 817.333,482.502 817.5,509.502 818,536.5C 819.124,540.462 821.624,542.795 825.5,543.5C 815.449,543.853 807.449,543.52 801.5,542.5C 802.794,541.71 803.961,540.71 805,539.5C 806.195,535.249 806.695,530.915 806.5,526.5C 807.496,526.586 808.329,526.252 809,525.5C 809.279,519.643 809.779,513.809 810.5,508C 810.245,506.674 809.578,505.674 808.5,505C 810.991,504.374 810.991,503.541 808.5,502.5C 810.632,500.605 810.966,498.438 809.5,496C 809.905,495.055 810.572,494.388 811.5,494C 809.586,492.587 808.253,490.753 807.5,488.5C 807.763,481.587 808.097,474.42 808.5,467C 807.915,465.698 807.249,464.531 806.5,463.5C 806.5,460.833 806.5,458.167 806.5,455.5C 814.133,454.484 822.133,454.484 830.5,455.5 Z"/></g>
<g><path style="opacity:1" fill="#efe2de" d="M 892.5,463.5 C 891.503,484.66 891.169,505.993 891.5,527.5C 890.5,527.5 889.5,527.5 888.5,527.5C 888.833,506.156 888.5,484.823 887.5,463.5C 886.178,485.202 886.178,506.869 887.5,528.5C 887.081,529.672 886.415,530.672 885.5,531.5C 884.334,508.841 884.167,486.174 885,463.5C 885.202,461.744 885.702,460.078 886.5,458.5C 888.709,457.894 890.876,457.227 893,456.5C 895.914,457.32 896.081,458.32 893.5,459.5C 892.571,460.689 892.238,462.022 892.5,463.5 Z"/></g>
<g><path style="opacity:1" fill="#b79866" d="M 446.5,452.5 C 447.568,453.434 448.901,453.768 450.5,453.5C 449.306,454.272 448.306,455.272 447.5,456.5C 444.888,457.277 443.055,458.944 442,461.5C 440.637,465.761 440.304,470.095 441,474.5C 444.66,482.241 450.494,487.574 458.5,490.5C 463.356,492.76 467.689,495.76 471.5,499.5C 473.917,502.625 476.583,505.625 479.5,508.5C 477.183,510.599 477.017,512.932 479,515.5C 479.219,514.062 479.719,512.729 480.5,511.5C 480.833,512 481.167,512.5 481.5,513C 482.199,517.49 482.866,521.99 483.5,526.5C 482.773,528.953 481.773,531.286 480.5,533.5C 479.575,532.359 478.741,532.359 478,533.5C 477.667,532.5 477.333,531.5 477,530.5C 475.334,531.34 475.167,530.84 476.5,529C 474.109,528.309 474.109,527.309 476.5,526C 474.724,523.199 474.391,520.365 475.5,517.5C 475.062,516.494 474.396,516.494 473.5,517.5C 471.146,515.754 470.146,513.421 470.5,510.5C 466.527,508.547 462.527,506.547 458.5,504.5C 450.092,500.537 442.592,495.203 436,488.5C 429.098,476.683 430.264,465.85 439.5,456C 441.577,454.295 443.91,453.128 446.5,452.5 Z"/></g>
<g><path style="opacity:1" fill="#af8c5f" d="M 661.5,463.5 C 660.503,485.994 660.169,508.661 660.5,531.5C 659.672,525.013 659.172,518.346 659,511.5C 658.823,515.356 658.323,519.023 657.5,522.5C 657.667,502.164 657.5,481.831 657,461.5C 656.939,458.723 655.772,456.723 653.5,455.5C 651.631,454.835 649.631,454.169 647.5,453.5C 655.167,452.167 662.833,452.167 670.5,453.5C 663.967,453.698 660.967,457.031 661.5,463.5 Z"/></g>
<g><path style="opacity:1" fill="#b99f61" d="M 814.5,464.5 C 815.121,474.963 815.788,485.296 816.5,495.5C 816.832,506.187 816.499,516.854 815.5,527.5C 814.77,525.659 814.103,523.825 813.5,522C 813.833,521.667 814.167,521.333 814.5,521C 814.152,513.473 813.152,506.14 811.5,499C 813.259,495.485 814.259,491.652 814.5,487.5C 813.371,479.676 813.371,472.01 814.5,464.5 Z"/></g>
<g><path style="opacity:1" fill="#b89a6a" d="M 657.5,522.5 C 658.323,519.023 658.823,515.356 659,511.5C 659.172,518.346 659.672,525.013 660.5,531.5C 660.827,536.214 660.493,540.88 659.5,545.5C 638.729,519.409 618.396,493.076 598.5,466.5C 598.5,465.167 597.833,464.5 596.5,464.5C 595.168,474.311 594.501,484.477 594.5,495C 594.506,505.408 594.839,515.741 595.5,526C 594.891,527.948 594.224,529.782 593.5,531.5C 593.667,508.498 593.5,485.498 593,462.5C 592.64,460.392 591.973,458.392 591,456.5C 588.51,455.257 586.01,454.09 583.5,453C 589.5,452.333 595.5,452.333 601.5,453C 604,455.5 606.5,458 609,460.5C 624.616,481.784 640.616,502.784 657,523.5C 657.399,523.272 657.565,522.938 657.5,522.5 Z"/></g>
<g><path style="opacity:1" fill="#aa9342" d="M 816.5,495.5 C 815.788,485.296 815.121,474.963 814.5,464.5C 814.56,463.957 814.893,463.624 815.5,463.5C 816.499,474.146 816.832,484.813 816.5,495.5 Z"/></g>
<g><path style="opacity:1" fill="#b59868" d="M 175.5,521.5 C 173.461,522.911 172.461,524.911 172.5,527.5C 171.325,527.719 170.325,527.386 169.5,526.5C 172.212,522.326 171.545,518.659 167.5,515.5C 166.288,517.836 166.621,520.003 168.5,522C 167.144,523.567 166.477,525.4 166.5,527.5C 157.53,506.865 149.03,485.865 141,464.5C 139.141,458.64 135.307,454.807 129.5,453C 139.5,452.333 149.5,452.333 159.5,453C 157.212,453.946 155.045,455.113 153,456.5C 152.333,458.833 152.333,461.167 153,463.5C 160.212,482.975 167.712,502.308 175.5,521.5 Z"/></g>
<g><path style="opacity:1" fill="#a99469" d="M 286.5,462.5 C 286.5,483.833 286.5,505.167 286.5,526.5C 285.751,525.469 285.085,524.302 284.5,523C 285.161,502.736 285.828,482.569 286.5,462.5 Z"/></g>
<g><path style="opacity:1" fill="#f1e4d6" d="M 375.5,470.5 C 377.675,478.513 380.675,486.179 384.5,493.5C 385.876,497.923 387.543,502.256 389.5,506.5C 387.604,507.466 385.604,507.799 383.5,507.5C 378.167,507.5 372.833,507.5 367.5,507.5C 365.396,507.799 363.396,507.466 361.5,506.5C 365.238,493.92 369.905,481.92 375.5,470.5 Z"/></g>
<g><path style="opacity:1" fill="#b79968" d="M 576.5,542.5 C 568.35,543.493 560.017,543.826 551.5,543.5C 551.062,543.565 550.728,543.399 550.5,543C 551.931,542.535 553.097,541.701 554,540.5C 553.327,530.304 550.494,520.637 545.5,511.5C 535.167,510.167 524.833,510.167 514.5,511.5C 513.481,513.604 512.481,515.604 511.5,517.5C 511.5,515.5 511.5,513.5 511.5,511.5C 517.365,493.427 523.532,475.427 530,457.5C 530.712,455.153 531.879,453.153 533.5,451.5C 545.462,478.436 556.629,505.769 567,533.5C 568.747,538.083 571.914,541.083 576.5,542.5 Z"/></g>
<g><path style="opacity:1" fill="#f0e4d8" d="M 543.5,507.5 C 538.167,507.5 532.833,507.5 527.5,507.5C 523.445,507.824 519.445,507.491 515.5,506.5C 520.284,494.6 524.784,482.6 529,470.5C 534.578,482.919 539.412,495.252 543.5,507.5 Z"/></g>
<g><path style="opacity:1" fill="#f2e4cc" d="M 892.5,463.5 C 893.167,473.995 893.5,484.661 893.5,495.5C 893.499,506.522 892.832,517.188 891.5,527.5C 891.169,505.993 891.503,484.66 892.5,463.5 Z"/></g>
<g><path style="opacity:1" fill="#aa8f69" d="M 243.5,461.5 C 241.674,459.563 241.507,457.563 243,455.5C 243.333,455.833 243.667,456.167 244,456.5C 244.688,455.668 244.521,455.002 243.5,454.5C 239.36,453.789 235.027,453.622 230.5,454C 232.795,456.757 233.795,459.923 233.5,463.5C 234.552,463.351 235.552,463.517 236.5,464C 235.707,465.085 235.04,466.252 234.5,467.5C 234.45,469.831 234.783,471.997 235.5,474C 234.833,475 234.167,476 233.5,477C 234.757,485.234 234.757,493.734 233.5,502.5C 233.887,504.274 234.553,505.941 235.5,507.5C 234.813,513.653 234.146,519.82 233.5,526C 235.069,529.814 234.736,533.314 232.5,536.5C 232.667,510.831 232.5,485.165 232,459.5C 231.027,455.594 228.527,453.427 224.5,453C 233.833,452.333 243.167,452.333 252.5,453C 250.661,454.132 248.661,454.965 246.5,455.5C 245.199,457.444 244.199,459.444 243.5,461.5 Z"/></g>
<g><path style="opacity:1" fill="#ae945d" d="M 806.5,463.5 C 807.249,464.531 807.915,465.698 808.5,467C 808.097,474.42 807.763,481.587 807.5,488.5C 808.253,490.753 809.586,492.587 811.5,494C 810.572,494.388 809.905,495.055 809.5,496C 810.966,498.438 810.632,500.605 808.5,502.5C 810.991,503.541 810.991,504.374 808.5,505C 809.578,505.674 810.245,506.674 810.5,508C 809.779,513.809 809.279,519.643 809,525.5C 808.329,526.252 807.496,526.586 806.5,526.5C 806.5,505.5 806.5,484.5 806.5,463.5 Z"/></g>
<g><path style="opacity:1" fill="#d5bb9b" d="M 596.5,464.5 C 597.833,464.5 598.5,465.167 598.5,466.5C 597.503,486.66 597.17,506.993 597.5,527.5C 596.503,506.673 596.169,485.673 596.5,464.5 Z"/></g>
<g><path style="opacity:1" fill="#ba9c64" d="M 287.5,457.5 C 287.371,459.216 287.038,460.883 286.5,462.5C 285.828,482.569 285.161,502.736 284.5,523C 285.085,524.302 285.751,525.469 286.5,526.5C 287.388,529.054 287.721,531.721 287.5,534.5C 286.778,534.082 286.278,533.416 286,532.5C 285.374,534.991 284.541,534.991 283.5,532.5C 280.937,535.026 281.603,536.693 285.5,537.5C 286.521,538.002 286.688,538.668 286,539.5C 283.816,540.108 281.816,539.441 280,537.5C 279.667,537.833 279.333,538.167 279,538.5C 278.692,537.692 278.192,537.025 277.5,536.5C 276.833,521.672 276.167,507.006 275.5,492.5C 275.768,481.129 275.434,469.795 274.5,458.5C 275.171,457.153 275.171,455.986 274.5,455C 277.656,454.397 280.656,454.897 283.5,456.5C 284.524,455.147 285.857,454.48 287.5,454.5C 287.5,455.5 287.5,456.5 287.5,457.5 Z"/></g>
<g><path style="opacity:1" fill="#b89866" d="M 382.5,459.5 C 393.129,484.199 403.296,509.199 413,534.5C 414.495,539.162 417.661,541.828 422.5,542.5C 414.016,543.493 405.349,543.826 396.5,543.5C 399.444,542.464 400.778,540.297 400.5,537C 398.599,529.696 396.265,522.529 393.5,515.5C 393.714,513.856 393.38,512.356 392.5,511C 393.167,510.667 393.833,510.333 394.5,510C 393.809,508.933 393.309,507.766 393,506.5C 392.002,509.028 391.169,509.028 390.5,506.5C 389.887,503.319 389.22,500.152 388.5,497C 388.645,496.228 388.978,495.561 389.5,495C 387.753,494.648 386.086,494.148 384.5,493.5C 380.675,486.179 377.675,478.513 375.5,470.5C 375.042,467.606 375.709,465.106 377.5,463C 377.167,462.667 376.833,462.333 376.5,462C 377.667,460.5 378.833,459 380,457.5C 380.417,458.756 381.25,459.423 382.5,459.5 Z"/></g>
<g><path style="opacity:1" fill="#f1e5cd" d="M 251.5,463.5 C 253.489,484.474 254.156,505.807 253.5,527.5C 251.511,506.526 250.844,485.193 251.5,463.5 Z"/></g>
<g><path style="opacity:1" fill="#a99063" d="M 382.5,459.5 C 381.25,459.423 380.417,458.756 380,457.5C 378.833,459 377.667,460.5 376.5,462C 376.833,462.333 377.167,462.667 377.5,463C 375.709,465.106 375.042,467.606 375.5,470.5C 369.905,481.92 365.238,493.92 361.5,506.5C 363.396,507.466 365.396,507.799 367.5,507.5C 369.743,508.812 372.41,509.478 375.5,509.5C 378.59,509.478 381.257,508.812 383.5,507.5C 385.604,507.799 387.604,507.466 389.5,506.5C 387.543,502.256 385.876,497.923 384.5,493.5C 386.086,494.148 387.753,494.648 389.5,495C 388.978,495.561 388.645,496.228 388.5,497C 389.22,500.152 389.887,503.319 390.5,506.5C 391.169,509.028 392.002,509.028 393,506.5C 393.309,507.766 393.809,508.933 394.5,510C 393.833,510.333 393.167,510.667 392.5,511C 393.38,512.356 393.714,513.856 393.5,515.5C 392.661,514.359 391.994,513.026 391.5,511.5C 380.854,510.501 370.187,510.168 359.5,510.5C 357.504,517.655 355.004,524.655 352,531.5C 351.333,534.5 351.333,537.5 352,540.5C 353.113,541.305 354.279,541.972 355.5,542.5C 350.167,543.833 344.833,543.833 339.5,542.5C 342.764,541.073 345.264,538.739 347,535.5C 357.34,507.811 367.673,480.144 378,452.5C 378.667,451.167 379.333,451.167 380,452.5C 381.411,454.65 382.245,456.984 382.5,459.5 Z"/></g>
<g><path style="opacity:1" fill="#9d825a" d="M 872.5,505.5 C 872.876,512.43 873.876,519.263 875.5,526C 873.396,526.489 873.062,527.655 874.5,529.5C 874.199,531.422 873.533,533.088 872.5,534.5C 872.5,524.833 872.5,515.167 872.5,505.5 Z"/></g>
<g><path style="opacity:1" fill="#ab9163" d="M 471.5,499.5 C 482.935,506.268 487.101,516.268 484,529.5C 479.963,539.514 472.463,545.014 461.5,546C 455.833,546.667 450.167,546.667 444.5,546C 441.543,545.721 438.877,544.887 436.5,543.5C 438.288,543.785 439.955,543.452 441.5,542.5C 441.154,541.304 440.654,541.304 440,542.5C 438.254,539.133 435.754,536.466 432.5,534.5C 432.167,535.5 431.833,536.5 431.5,537.5C 431.771,539.693 432.771,541.359 434.5,542.5C 433.417,542.461 432.417,542.127 431.5,541.5C 430.336,534.524 430.169,527.524 431,520.5C 433.961,537.888 444.128,545.388 461.5,543C 472.327,539.361 476.16,531.861 473,520.5C 471.92,518.004 470.586,515.67 469,513.5C 465.308,510.635 461.808,507.635 458.5,504.5C 462.527,506.547 466.527,508.547 470.5,510.5C 470.146,513.421 471.146,515.754 473.5,517.5C 474.396,516.494 475.062,516.494 475.5,517.5C 474.391,520.365 474.724,523.199 476.5,526C 474.109,527.309 474.109,528.309 476.5,529C 475.167,530.84 475.334,531.34 477,530.5C 477.333,531.5 477.667,532.5 478,533.5C 478.741,532.359 479.575,532.359 480.5,533.5C 481.773,531.286 482.773,528.953 483.5,526.5C 482.866,521.99 482.199,517.49 481.5,513C 481.167,512.5 480.833,512 480.5,511.5C 479.719,512.729 479.219,514.062 479,515.5C 477.017,512.932 477.183,510.599 479.5,508.5C 476.583,505.625 473.917,502.625 471.5,499.5 Z"/></g>
<g><path style="opacity:1" fill="#a57e40" d="M 527.5,507.5 C 532.833,507.5 538.167,507.5 543.5,507.5C 541.257,508.812 538.59,509.478 535.5,509.5C 532.41,509.478 529.743,508.812 527.5,507.5 Z"/></g>
<g><path style="opacity:1" fill="#a57d3a" d="M 367.5,507.5 C 372.833,507.5 378.167,507.5 383.5,507.5C 381.257,508.812 378.59,509.478 375.5,509.5C 372.41,509.478 369.743,508.812 367.5,507.5 Z"/></g>
<g><path style="opacity:1" fill="#bd9c73" d="M 281.5,463.5 C 282.832,472.141 283.498,481.141 283.5,490.5C 283.333,499.5 283.167,508.5 283,517.5C 281.322,518.682 281.488,519.848 283.5,521C 282.971,522.559 282.304,524.059 281.5,525.5C 282.563,527.366 281.896,527.866 279.5,527C 280.188,521.532 280.855,516.032 281.5,510.5C 281.402,495.229 281.402,479.562 281.5,463.5 Z"/></g>
<g><path style="opacity:1" fill="#efe0de" d="M 804.5,527.5 C 803.5,527.5 802.5,527.5 801.5,527.5C 801.5,522.167 801.5,516.833 801.5,511.5C 801.333,495.497 801.5,479.497 802,463.5C 802.414,463.043 802.914,462.709 803.5,462.5C 804.5,484.156 804.833,505.823 804.5,527.5 Z"/></g>
<g><path style="opacity:1" fill="#bf9e6d" d="M 883.5,461.5 C 883.193,487.865 883.527,514.199 884.5,540.5C 882.292,542.935 879.792,542.935 877,540.5C 874.544,542.321 871.711,542.988 868.5,542.5C 870.358,540.117 871.692,537.45 872.5,534.5C 873.533,533.088 874.199,531.422 874.5,529.5C 873.062,527.655 873.396,526.489 875.5,526C 873.876,519.263 872.876,512.43 872.5,505.5C 872.5,505.167 872.5,504.833 872.5,504.5C 873.234,503.122 873.901,501.622 874.5,500C 874.054,497.747 873.888,495.247 874,492.5C 874.333,491.833 874.667,491.167 875,490.5C 876.019,491.687 877.186,492.687 878.5,493.5C 879.214,490.973 879.88,488.473 880.5,486C 878.26,485.023 875.927,484.523 873.5,484.5C 873.689,480.652 873.689,476.985 873.5,473.5C 873.808,472.692 874.308,472.025 875,471.5C 875.423,472.956 876.256,473.456 877.5,473C 876.167,472.333 876.167,471.667 877.5,471C 876.207,470.51 874.873,470.343 873.5,470.5C 873.929,467.214 873.929,464.047 873.5,461C 874.167,460.667 874.833,460.333 875.5,460C 874.167,459 874.167,458 875.5,457C 874.256,456.544 873.423,457.044 873,458.5C 870.805,454.53 871.972,453.53 876.5,455.5C 881.758,452.721 883.591,454.054 882,459.5C 881.813,471.213 881.313,482.879 880.5,494.5C 881.809,504.148 881.809,513.814 880.5,523.5C 881.197,527.471 881.697,531.471 882,535.5C 882.168,510.663 882.668,485.997 883.5,461.5 Z"/></g>
<g><path style="opacity:1" fill="#f3e1dc" d="M 600.5,472.5 C 603.39,473.899 604.89,476.232 605,479.5C 605.5,495.497 605.667,511.497 605.5,527.5C 604.5,527.5 603.5,527.5 602.5,527.5C 602.207,509.15 601.541,490.817 600.5,472.5 Z"/></g>
<g><path style="opacity:1" fill="#a99164" d="M 200.5,463.5 C 201.5,463.5 202.5,463.5 203.5,463.5C 194.725,490.738 185.058,517.738 174.5,544.5C 173.641,545.774 172.974,545.608 172.5,544C 170.062,538.631 168.062,533.131 166.5,527.5C 168.228,530.607 170.228,533.607 172.5,536.5C 172.291,537.086 171.957,537.586 171.5,538C 172.766,538.309 173.933,538.809 175,539.5C 175.59,535.652 176.757,531.986 178.5,528.5C 177.675,527.614 176.675,527.281 175.5,527.5C 175.5,525.833 175.5,524.167 175.5,522.5C 176.558,523.6 177.392,524.934 178,526.5C 185.571,505.393 193.071,484.393 200.5,463.5 Z"/></g>
<g><path style="opacity:1" fill="#bd9d62" d="M 175.5,521.5 C 175.5,521.833 175.5,522.167 175.5,522.5C 175.5,524.167 175.5,525.833 175.5,527.5C 176.675,527.281 177.675,527.614 178.5,528.5C 176.757,531.986 175.59,535.652 175,539.5C 173.933,538.809 172.766,538.309 171.5,538C 171.957,537.586 172.291,537.086 172.5,536.5C 170.228,533.607 168.228,530.607 166.5,527.5C 166.477,525.4 167.144,523.567 168.5,522C 166.621,520.003 166.288,517.836 167.5,515.5C 171.545,518.659 172.212,522.326 169.5,526.5C 170.325,527.386 171.325,527.719 172.5,527.5C 172.461,524.911 173.461,522.911 175.5,521.5 Z"/></g>
<g><path style="opacity:1" fill="#bd9e69" d="M 243.5,461.5 C 243.5,461.833 243.5,462.167 243.5,462.5C 242.668,486.663 242.168,510.997 242,535.5C 241.387,539.318 239.387,540.318 236,538.5C 234.67,539.582 233.17,540.249 231.5,540.5C 231.232,538.901 231.566,537.568 232.5,536.5C 234.736,533.314 235.069,529.814 233.5,526C 234.146,519.82 234.813,513.653 235.5,507.5C 234.553,505.941 233.887,504.274 233.5,502.5C 234.757,493.734 234.757,485.234 233.5,477C 234.167,476 234.833,475 235.5,474C 234.783,471.997 234.45,469.831 234.5,467.5C 235.04,466.252 235.707,465.085 236.5,464C 235.552,463.517 234.552,463.351 233.5,463.5C 233.795,459.923 232.795,456.757 230.5,454C 235.027,453.622 239.36,453.789 243.5,454.5C 244.521,455.002 244.688,455.668 244,456.5C 243.667,456.167 243.333,455.833 243,455.5C 241.507,457.563 241.674,459.563 243.5,461.5 Z"/></g>
<g><path style="opacity:1" fill="#fcf3e0" d="M 661.5,463.5 C 660.967,457.031 663.967,453.698 670.5,453.5C 662.833,452.167 655.167,452.167 647.5,453.5C 649.631,454.169 651.631,454.835 653.5,455.5C 651.177,456.582 648.843,456.415 646.5,455C 645.663,453.989 645.33,452.822 645.5,451.5C 652.714,450.925 659.881,450.258 667,449.5C 668.309,451.891 669.309,451.891 670,449.5C 671.319,451.25 671.819,453.25 671.5,455.5C 669.801,455.34 668.134,455.506 666.5,456C 665.192,458.355 664.192,460.855 663.5,463.5C 662.167,572.825 661.5,572.825 661.5,463.5 Z"/></g>
<g><path style="opacity:1" fill="#ad905e" d="M 243.5,462.5 C 243.333,487.169 243.5,511.836 244,536.5C 244.863,540.518 247.363,542.518 251.5,542.5C 242.682,543.493 233.682,543.827 224.5,543.5C 224.5,543.167 224.5,542.833 224.5,542.5C 227.079,542.606 229.412,541.939 231.5,540.5C 233.17,540.249 234.67,539.582 236,538.5C 239.387,540.318 241.387,539.318 242,535.5C 242.168,510.997 242.668,486.663 243.5,462.5 Z"/></g>
<g><path style="opacity:1" fill="#ad905d" d="M 275.5,492.5 C 276.167,507.006 276.833,521.672 277.5,536.5C 278.192,537.025 278.692,537.692 279,538.5C 279.333,538.167 279.667,537.833 280,537.5C 281.816,539.441 283.816,540.108 286,539.5C 286.688,538.668 286.521,538.002 285.5,537.5C 281.603,536.693 280.937,535.026 283.5,532.5C 284.541,534.991 285.374,534.991 286,532.5C 286.278,533.416 286.778,534.082 287.5,534.5C 287.5,536.833 287.5,539.167 287.5,541.5C 295.507,541.666 303.507,541.5 311.5,541C 322.249,538.918 328.082,532.418 329,521.5C 329.5,528.826 329.666,536.159 329.5,543.5C 310.12,543.809 290.787,543.475 271.5,542.5C 273.27,540.887 274.436,538.887 275,536.5C 275.5,521.837 275.667,507.17 275.5,492.5 Z"/></g>
<g><path style="opacity:1" fill="#a58c5b" d="M 511.5,511.5 C 511.5,513.5 511.5,515.5 511.5,517.5C 509.329,523.515 507.663,529.682 506.5,536C 505.785,540.109 507.452,542.276 511.5,542.5C 505.167,543.833 498.833,543.833 492.5,542.5C 496.876,541.976 500.043,539.643 502,535.5C 504.87,527.32 508.037,519.32 511.5,511.5 Z"/></g>
<g><path style="opacity:1" fill="#b08c5a" d="M 596.5,464.5 C 596.169,485.673 596.503,506.673 597.5,527.5C 596.959,532.449 597.792,537.116 600,541.5C 602.277,542.117 604.444,542.784 606.5,543.5C 599.978,543.823 593.645,543.49 587.5,542.5C 591.798,540.248 593.798,536.581 593.5,531.5C 594.224,529.782 594.891,527.948 595.5,526C 594.839,515.741 594.506,505.408 594.5,495C 594.501,484.477 595.168,474.311 596.5,464.5 Z"/></g>
<g><path style="opacity:1" fill="#b59658" d="M 436.5,543.5 C 435.508,543.672 434.842,543.338 434.5,542.5C 432.771,541.359 431.771,539.693 431.5,537.5C 431.833,536.5 432.167,535.5 432.5,534.5C 435.754,536.466 438.254,539.133 440,542.5C 440.654,541.304 441.154,541.304 441.5,542.5C 439.955,543.452 438.288,543.785 436.5,543.5 Z"/></g>
<g><path style="opacity:1" fill="#9f804a" d="M 884.5,540.5 C 886.297,541.73 888.297,542.396 890.5,542.5C 881.833,543.833 873.167,543.833 864.5,542.5C 865.833,542.5 867.167,542.5 868.5,542.5C 871.711,542.988 874.544,542.321 877,540.5C 879.792,542.935 882.292,542.935 884.5,540.5 Z"/></g>
<g><path style="opacity:1" fill="#bdaf9e" d="M 251.5,542.5 C 252.043,542.56 252.376,542.893 252.5,543.5C 243.19,544.498 233.857,544.832 224.5,544.5C 224.5,544.167 224.5,543.833 224.5,543.5C 233.682,543.827 242.682,543.493 251.5,542.5 Z"/></g>
<g><path style="opacity:1" fill="#b9ac9a" d="M 271.5,542.5 C 290.787,543.475 310.12,543.809 329.5,543.5C 308.663,544.828 287.663,544.828 266.5,543.5C 268.045,542.548 269.712,542.215 271.5,542.5 Z"/></g>
<g><path style="opacity:1" fill="#b5a695" d="M 339.5,542.5 C 344.833,543.833 350.167,543.833 355.5,542.5C 356.675,542.281 357.675,542.614 358.5,543.5C 351.167,544.833 343.833,544.833 336.5,543.5C 337.325,542.614 338.325,542.281 339.5,542.5 Z"/></g>
<g><path style="opacity:1" fill="#b8ad9c" d="M 422.5,542.5 C 423.043,542.56 423.376,542.893 423.5,543.5C 414.342,544.822 405.342,544.822 396.5,543.5C 405.349,543.826 414.016,543.493 422.5,542.5 Z"/></g>
<g><path style="opacity:1" fill="#b7aa9a" d="M 492.5,542.5 C 498.833,543.833 505.167,543.833 511.5,542.5C 512.376,542.369 513.043,542.702 513.5,543.5C 506.167,544.833 498.833,544.833 491.5,543.5C 491.624,542.893 491.957,542.56 492.5,542.5 Z"/></g>
<g><path style="opacity:1" fill="#b3a492" d="M 576.5,542.5 C 577.043,542.56 577.376,542.893 577.5,543.5C 568.675,544.821 560.009,544.821 551.5,543.5C 560.017,543.826 568.35,543.493 576.5,542.5 Z"/></g>
<g><path style="opacity:1" fill="#b7aa98" d="M 587.5,542.5 C 593.645,543.49 599.978,543.823 606.5,543.5C 599.323,544.819 591.99,544.819 584.5,543.5C 585.325,542.614 586.325,542.281 587.5,542.5 Z"/></g>
<g><path style="opacity:1" fill="#f3e9d6" d="M 830.5,455.5 C 838.582,455.259 843.915,458.925 846.5,466.5C 846.631,467.239 846.464,467.906 846,468.5C 844.066,462.233 839.9,458.399 833.5,457C 828.467,456.171 823.467,456.338 818.5,457.5C 822.796,458.328 827.129,458.828 831.5,459C 830.09,459.368 829.09,460.201 828.5,461.5C 829.297,467.581 829.297,473.581 828.5,479.5C 827.505,474.208 827.172,468.875 827.5,463.5C 826.5,463.5 825.5,463.5 824.5,463.5C 824.055,484.838 823.389,506.171 822.5,527.5C 821.833,516.674 821.167,506.008 820.5,495.5C 820.5,484.833 820.5,474.167 820.5,463.5C 821.5,463.5 822.5,463.5 823.5,463.5C 823.5,462.5 823.5,461.5 823.5,460.5C 822.167,460.5 820.833,460.5 819.5,460.5C 818.865,472.135 818.531,483.802 818.5,495.5C 818.501,506.522 819.168,517.188 820.5,527.5C 820.335,530.85 820.502,534.183 821,537.5C 822.441,538.26 823.941,538.926 825.5,539.5C 825.833,538.833 826.167,538.167 826.5,537.5C 827.316,539.287 828.316,540.954 829.5,542.5C 828.098,543.842 828.431,544.676 830.5,545C 827.536,545.84 827.203,546.84 829.5,548C 827.728,549.487 825.728,549.82 823.5,549C 826.167,548.333 826.167,547.667 823.5,547C 824.167,546.667 824.833,546.333 825.5,546C 819.525,545.24 813.692,545.74 808,547.5C 805.2,546.875 802.366,546.208 799.5,545.5C 808.324,544.833 816.991,544.167 825.5,543.5C 821.624,542.795 819.124,540.462 818,536.5C 817.5,509.502 817.333,482.502 817.5,455.5C 821.833,455.5 826.167,455.5 830.5,455.5 Z"/></g>
<g><path style="opacity:1" fill="#f1dfe6" d="M 820.5,495.5 C 820.5,506.167 820.5,516.833 820.5,527.5C 819.168,517.188 818.501,506.522 818.5,495.5C 818.531,483.802 818.865,472.135 819.5,460.5C 820.833,460.5 822.167,460.5 823.5,460.5C 823.5,461.5 823.5,462.5 823.5,463.5C 822.5,463.5 821.5,463.5 820.5,463.5C 820.5,474.167 820.5,484.833 820.5,495.5 Z"/></g>
<g><path style="opacity:1" fill="#bdb19d" d="M 864.5,542.5 C 873.167,543.833 881.833,543.833 890.5,542.5C 891.043,542.56 891.376,542.893 891.5,543.5C 882.167,544.833 872.833,544.833 863.5,543.5C 863.624,542.893 863.957,542.56 864.5,542.5 Z"/></g>
</svg>
